<?xml version="1.0" encoding="utf-8"?>
<!-- Generator: Adobe Illustrator 27.7.0, SVG Export Plug-In . SVG Version: 6.00 Build 0)  -->
<svg version="1.1" id="Layer_1" xmlns="http://www.w3.org/2000/svg" xmlns:xlink="http://www.w3.org/1999/xlink" x="0px" y="0px"
	 viewBox="0 0 150.9 38.6" style="enable-background:new 0 0 150.9 38.6;" xml:space="preserve">
<style type="text/css">
	.st0{opacity:0.9;}
	.st1{fill:#FFE9D3;}
	.st2{opacity:0.9;fill:#FFCB98;enable-background:new    ;}
	.st3{fill:#FFD4AA;}
	.st4{fill:#FFDFBF;}
	.st5{fill:#FFF1E4;}
	.st6{fill:none;}
	.st7{fill:#FFFAF4;}
	.st8{fill:#CCE5CA;}
	.st9{opacity:0.9;fill:#88C382;enable-background:new    ;}
	.st10{fill:#9DCD98;}
	.st11{fill:#B5DAB1;}
	.st12{fill:#DFEFDE;}
	.st13{fill:#F3F9F2;}
	.st14{fill:#427CBE;}
</style>
<g>
	<g>
		<g>
			<g>
				<g>
					<g class="st0">
						<g class="st0">
							<path class="st1" d="M116.4,9.6c-0.5-1-7.5-1.1-8.4-1.4c-4-0.8-18.6,1.5-18.7,1c0.2-0.7-3.2-3.8-4.7-3.9
								c-3.5-0.4-7,0.1-10,1.1c-1.5,0.5-1.7,0.8-2.3,0.7c-0.3,0-1,1.2-2.9,1.8c-1.3,0.4-3,0.2-4.2,0.7c-2.3,0.7-9.8,1.3-12.4,1.7
								c-4.9,0.7-7.4,0.9-11.3,0.4c-2.9-0.4-5.3-0.1-8.2-0.3c-3.1-0.1-5.3,0-8.4-0.1c-2.9-0.3-5.6-0.4-8.7-0.4
								c-0.4,0-0.8,0.1-1.1,0.2c-0.3,0.1-1.1,0.1-1.5,0.1c-2.5-0.2-4.8-0.9-7.3-0.7c-0.7,0-1.7,0.3-1.5,0.6c1,1.4,3,2.4,5.2,3.4
								c2.1,0.9,4.8,0.9,7.6,1.1c3.9,0.3,6.6,2,8.6,3.6c1.3,1.3,2.4,3.3,5.7,3.2c3.6-0.1,7.1-1.1,11.1-0.5c2.7,0.5,5,0.9,7.8,1.2
								c0.4,0.1,2,0.3,2.5,0.3c3.2-0.2,6.9,0.3,9-0.9c3.5-0.4,5.3,0.1,8.1-0.8c3.5-1.1,7.1-2.4,11.2-2.7c2.4-0.2,4.5-0.2,6.8,0
								c0.8,0,3.7,1.2,4.5,1.6c1.6,0.7,4,0.2,5.6-0.3c2.5-1,5.1-1.7,8.2-2.1c1.1-0.1,2.1,0.3,3.3,0.3c2.9-0.2,5-1,7.5-1.4
								c9.5-0.7,8.2-1.3,8.6-1.2c1,0,1.3,0.7,2.5,0.8c1.6,0.1,3.2-0.3,4.2-0.7c3.1-1.1,6.9-2.2,10.8-1.6c-0.2-0.1-0.3-0.4-0.6-0.4
								c-5.5-0.8-9.9-2.4-15.8-2.2c-0.6,0.1-1.3,0.3-2,0.3c-1.2,0-2.3,0.1-3.4,0.1C120.1,12.2,116.9,10.6,116.4,9.6z"/>
							<path class="st2" d="M17.5,15.6c-2.8-0.2-5.5-0.2-7.6-1.1c-2.2-0.9-4.2-2-5.2-3.4c-0.2-0.2,0.8-0.5,1.5-0.5
								c2.5-0.1,4.8,0.5,7.3,0.7c0.4,0,1.2,0,1.5-0.1s0.7-0.2,1.1-0.2c3.1,0,5.8,0.1,8.7,0.4c3.1,0.1,5.3,0,8.4,0.1
								c3,0.2,5.3-0.2,8.2,0.3c3.8,0.4,6.3,0.3,11.3-0.4c2.6-0.4,10-1,12.4-1.7c1.2-0.5,2.9-0.3,4.2-0.7c0,0,1,0.5,3.1,1.4
								l-23.3,5.1L17.5,15.6z"/>
							<path class="st3" d="M69.5,10.1c0,0,10.4-2.4,9.4,0.2c0,0-8.3,6.6-14.2,6.8c0,0-4.2,0.1-6.4,0.2c0,0-4-1.1-8.5-0.4
								c0,0-18.1,1.7-19.3,0.7c0,0-7.4-0.5-9.2-1.2c0,0-2.8-1.9-6.1-1.7c0,0-10-2-4.9-2.3c0,0,3-0.4,4.5-0.6c0,0,21.6,0.8,22.8,1.4
								C37.4,13.4,61,15.8,69.5,10.1z"/>
							<path class="st4" d="M69.9,9.4c0,0,6.8-3,10.5-0.9c0,0,10.9,2.5,7.7,4.1c0,0-12.6,6.4-24,6.7c0,0-1.2,0-3.5,1
								c0,0-6.1,1.1-8.8-0.3c0,0-7.6-1.8-11-1.5c0,0-2.7-1.1-4.6-0.6c0,0,18.6-2.2,20.9-1c0,0,8.4,1.5,16.9-3.3
								C74.1,13.8,76.6,10.2,69.9,9.4z"/>
							<path class="st5" d="M75.6,5.7c1.2-0.5,2.4-1.1,3.7-1.5C80,4.1,81.1,4.1,82,4.1c1.1-0.1,2.3,0.2,3,0.4
								c3.5,1.1,9.2,1.2,12.3,2.6c0.5,0.2,0.9,0.2,1.4,0.3c0.2-0.1,0.7-0.2,0.9-0.2c1.6,0,3.3,0,4.8-0.1c2.5-0.3,5,0.3,7.2,1
								c1.3,0.3,2.9,0.6,4.3,0.8c2.5,0.5,2.6,2.1,5,2.3c3.8,0.5,7.2-0.5,11-0.1c2.2,0.3,4.2,0.5,6.3,1c1.5,0.5,3.2,0.8,4.9,1.2
								c0.4,0.1,1.3,0.7,1.3,0.8c-0.2,0.2-1.1,0.1-1.7,0.2c-1.6,0.2-2.3-0.5-3.3-0.9c-1.3-0.3-3-0.2-4.6-0.3
								c-0.7-0.1-1.2-0.3-1.8-0.5c-0.9-0.4-2.1-0.1-3.4,0c-1.6,0.2-3.2-0.3-4.8-0.3c-2.2,0-4,0.8-5.8,0.5c1.6,0.4-6.7,0.1-5-0.1
								c-0.1,0.1-0.6-0.2-0.7-0.4c0-0.1-0.1-0.3,0.1-0.4c1.2-0.5,1.1-1.3,1.5-1.9c-0.1-0.1-4.4-0.2-6.1-0.7c-1.3-0.5-2.4-1-4-1.1
								c-0.4,0-0.6,0.4-1,0.4c-1,0-12.4,2.6-13.7,2.4c-0.8-0.2-1.8-0.6-1.5-1c0.2-0.9-1.2-1.3-1.7-2.1c-0.1-0.2,0.2-0.5,0.2-0.7
								C86.7,6.7,85.9,6,85,6c-1.6-0.4-3.4-0.5-4.8-0.3L75.6,5.7z"/>
							<path class="st6" d="M34.5,22.2c0,0,5.7-1.3,11.4,0.3c0,0,4.8,0.8,5.8,0.7l1.6,0.3c0,0,7.5,0.2,8.8-0.9c0,0,3.6-0.4,4.2-0.2
								c0,0,2.9,0.1,6.5-1.4"/>
							<path class="st7" d="M106.7,6.4c1.2,0.2,7.1,1.1,8.7,1.7c2.5,0.9,4.9,1.7,7.4,2.6c0.3,0.1,0.6,0.1,0.8,0
								c1.6-0.5,3.5-0.2,5-0.4c0.7-0.1,1.3-0.3,2-0.3c3.8,0.2,7.2,0.9,10.4,1.9c1.4,0.4,2.5,1,3.8,1.5c0.2,0.1,0.7,0.3,0.6,0.5
								c0.1,0.1-0.6,0.1-0.9,0.1c-0.4-0.1-0.7-0.3-1.2-0.4c-0.9-0.3-2.1-0.3-2.9-0.6c-0.9-0.3-1.7-0.6-2.7-0.9
								c-0.7-0.1-1.3-0.2-2-0.2c-2.6-0.3-5.1-0.4-7.6-0.4c-1,0.5-2.6,0.1-3.7,0.1c-0.4,0-0.7-0.1-1.1-0.2c-1.1-0.1-2.2,0.1-2.9-0.2
								c-1.5-0.8-2.9-1.5-4.7-2.1c-1.4-0.5-7.5-1.7-9.1-1.9c-2.1-0.3-4.2,0-6.2-0.1C99.9,7.2,101.6,6,106.7,6.4z"/>
						</g>
					</g>
				</g>
			</g>
		</g>
		<g>
			<g>
				<g>
					<g class="st0">
						<g class="st0">
							<path class="st8" d="M34.5,28.8c0.5,1,7.5,1.1,8.4,1.4c4,0.8,18.6-1.5,18.7-1c-0.2,0.7,3.2,3.8,4.7,3.9
								c3.6,0.4,7.1-0.1,10.1-1.2c1.5-0.5,1.7-0.8,2.3-0.7c0.3,0,1-1.2,2.9-1.8c1.3-0.4,3-0.2,4.2-0.7c2.3-0.7,9.8-1.3,12.4-1.7
								c4.9-0.7,7.4-0.9,11.3-0.4c2.9,0.4,5.3,0.1,8.2,0.3c3.1,0.1,5.3,0,8.4,0.1c2.9,0.3,5.6,0.4,8.7,0.4c0.4,0,0.8-0.1,1.1-0.2
								s1.1-0.1,1.5-0.1c2.5,0.2,4.8,0.9,7.3,0.7c0.7,0,1.7-0.3,1.5-0.6c-1-1.4-3-2.4-5.2-3.4c-2.1-0.9-4.8-0.9-7.6-1.1
								c-3.9-0.3-6.6-2-8.6-3.6c-1.3-1.3-2.4-3.3-5.7-3.2c-3.9,0.2-7.3,1.2-11.3,0.6c-2.7-0.5-5-0.9-7.8-1.2c-0.4-0.1-2-0.3-2.5-0.3
								c-3.2,0.2-6.9-0.3-9,0.9c-3.5,0.4-5.3-0.1-8.1,0.8c-3.5,1.1-7.1,2.4-11.2,2.7c-2.4,0.2-4.5,0.2-6.8,0c-0.8,0-3.7-1.2-4.5-1.6
								c-1.6-0.7-4-0.2-5.6,0.3c-2.5,1-5.1,1.7-8.2,2.1c-1.1,0.1-2.1-0.3-3.3-0.3c-2.9,0.2-5,1-7.5,1.4c-9.5,0.7-8.2,1.3-8.6,1.2
								c-1,0-1.3-0.7-2.5-0.8C20.6,21.6,19,22,18,22.4c-3.1,1.1-6.9,2.2-10.8,1.6c0.2,0.1,0.3,0.4,0.6,0.4c5.5,0.8,9.9,2.4,15.8,2.2
								c0.6-0.1,1.3-0.3,2-0.3c1.2,0,2.3-0.1,3.4-0.1C30.7,26.2,34,27.9,34.5,28.8z"/>
							<path class="st9" d="M133.3,22.8c2.8,0.2,5.5,0.2,7.6,1.1c2.2,0.9,4.2,2,5.2,3.4c0.2,0.3-0.8,0.6-1.5,0.6
								c-2.5,0.1-4.8-0.5-7.3-0.7c-0.4,0-1.2,0-1.5,0.1s-0.7,0.2-1.1,0.2c-3.1,0-5.8-0.1-8.7-0.4c-3.1-0.1-5.3,0-8.4-0.1
								c-3-0.2-5.3,0.2-8.2-0.3c-3.8-0.4-6.3-0.3-11.3,0.4c-2.6,0.4-10,1-12.4,1.7c-1.2,0.5-2.9,0.3-4.2,0.7c0,0-1-0.5-3.1-1.4
								l23.3-5.1L133.3,22.8z"/>
							<path class="st10" d="M81.3,28.3c0,0-10.4,2.4-9.4-0.2c0,0,8.3-6.6,14.2-6.8c0,0,4.2-0.1,6.4-0.2c0,0,4,1.1,8.5,0.4
								c0,0,18.1-1.7,19.3-0.7c0,0,7.4,0.5,9.2,1.2c0,0,2.8,1.9,6.1,1.7c0,0,10,2,4.9,2.3c0,0-3,0.4-4.5,0.6c0,0-21.6-0.8-22.8-1.4
								C113.4,25.1,89.8,22.7,81.3,28.3z"/>
							<path class="st11" d="M81,29.1c0,0-6.8,3-10.5,0.9c0,0-10.9-2.5-7.7-4.1c0,0,12.6-6.4,24-6.7c0,0,1.2,0,3.5-1
								c0,0,6.1-1.1,8.8,0.3c0,0,7.6,1.8,11,1.5c0,0,2.7,1.1,4.6,0.6c0,0-18.6,2.2-20.9,1c0,0-8.4-1.5-16.9,3.3
								C76.8,24.6,74.2,28.2,81,29.1z"/>
							<path class="st12" d="M75.3,32.8c-1.2,0.5-2.4,1.1-3.7,1.5c-0.7,0.2-1.8,0.1-2.6,0.2c-1.1,0.1-2.3-0.2-3-0.4
								c-3.5-1.1-9.2-1.2-12.3-2.6c-0.5-0.2-0.9-0.2-1.4-0.3c-0.2,0.1-0.7,0.2-0.9,0.2c-1.6,0-3.3,0-4.8,0.1c-2.5,0.3-5-0.3-7.2-1
								c-1.4-0.3-3-0.5-4.4-0.8c-2.5-0.5-2.6-2.1-5-2.3c-3.8-0.5-7.2,0.5-11,0.1c-2.2-0.3-4.2-0.5-6.3-1c-1.5-0.5-3.2-0.8-4.9-1.2
								c-0.4-0.1-1.3-0.7-1.3-0.8c0.2-0.2,1.1-0.1,1.7-0.2c1.6-0.2,2.3,0.5,3.3,0.9c1.3,0.3,3,0.2,4.6,0.3c0.7,0.1,1.2,0.3,1.8,0.5
								c0.9,0.4,2.1,0.1,3.4,0c1.6-0.2,3.2,0.3,4.8,0.3c2.2,0,4-0.8,5.8-0.5c-1.6-0.4,6.7-0.1,5,0.1c0.1-0.1,0.6,0.2,0.7,0.4
								c0,0.1,0.1,0.3-0.1,0.4c-1.2,0.5-1.1,1.3-1.5,1.9c0.1,0.1,4.4,0.2,6.1,0.7c1.3,0.5,2.4,1,4,1.1c0.4,0,0.6-0.4,1-0.4
								c1,0,12.4-2.6,13.7-2.4c0.8,0.2,1.8,0.6,1.5,1c-0.2,0.9,1.2,1.3,1.7,2.1c0.1,0.2-0.2,0.5-0.2,0.7c0.4,0.6,1.2,1.2,2.1,1.3
								c1.6,0.4,3.4,0.5,4.8,0.3L75.3,32.8z"/>
							<path class="st6" d="M116.3,16.3c0,0-5.7,1.3-11.4-0.3c0,0-4.8-0.8-5.8-0.7L97.5,15c0,0-7.5-0.2-8.8,0.9c0,0-3.6,0.4-4.2,0.2
								c0,0-2.9-0.1-6.5,1.4"/>
							<path class="st13" d="M44.2,32c-1.2-0.1-7.1-1.1-8.7-1.7c-2.5-0.9-4.9-1.7-7.4-2.6c-0.3-0.1-0.6-0.1-0.8,0
								c-1.6,0.5-3.5,0.2-5,0.4c-0.7,0.1-1.3,0.3-2,0.3c-3.8-0.2-7.2-0.9-10.4-1.9c-1.4-0.4-2.5-1-3.8-1.5c-0.2-0.1-0.7-0.3-0.6-0.5
								c-0.1-0.1,0.6-0.1,0.9-0.1c0.4,0.1,0.7,0.3,1.2,0.4c0.9,0.3,2.1,0.3,2.9,0.6c0.9,0.3,1.7,0.6,2.7,0.9c0.7,0.1,1.3,0.2,2,0.2
								c2.6,0.3,5.1,0.4,7.6,0.4c1-0.5,2.6-0.1,3.7-0.1c0.4,0,0.7,0.1,1.1,0.2c1.1,0.1,2.2-0.1,2.9,0.2c1.5,0.8,2.9,1.5,4.7,2.1
								c1.4,0.5,7.5,1.7,9.1,1.9c2.1,0.3,4.2,0,6.2,0.1C50.9,31.2,49.3,32.5,44.2,32z"/>
						</g>
					</g>
				</g>
			</g>
		</g>
	</g>
	<g>
		<path class="st14" d="M133.8,12h2.4l6.5,14.8H140l-1.5-3.6h-7l-1.5,3.6h-2.7L133.8,12z M137.5,21l-2.5-5.9l-2.5,5.9H137.5z"/>
		<path class="st14" d="M112.6,12.1h2.6v6.1h7.1v-6.1h2.6v14.7h-2.6v-6.2h-7.1v6.2h-2.6V12.1z"/>
		<path class="st14" d="M22,15.1c1,1.3,1.8,2.7,2.5,4.3v-8.2h-7C19.1,12.1,20.7,13.4,22,15.1z"/>
		<path class="st14" d="M11.9,12c-1.3,0-2.5,0.3-3.7,0.8v14.6h15.5C23.6,18.9,18.4,12,11.9,12"/>
		<path class="st14" d="M33.7,24.9l8.7-10.5H34v-2.3h11.8V14l-8.7,10.5h8.7v2.3H33.7L33.7,24.9L33.7,24.9z"/>
		<path class="st14" d="M49,12.1h10.9v2.3h-8.3v3.8H59v2.3h-7.4v3.9H60v2.3H49V12.1L49,12.1z"/>
		<path class="st14" d="M63.1,12.1h6.6c0.9,0,1.7,0.1,2.5,0.4c0.7,0.3,1.3,0.6,1.8,1.1c0.4,0.4,0.7,0.9,0.9,1.4
			c0.2,0.5,0.3,1.1,0.3,1.8v0c0,0.6-0.1,1.1-0.3,1.6c-0.2,0.5-0.4,0.9-0.7,1.3c-0.3,0.4-0.7,0.7-1.1,0.9c-0.4,0.3-0.9,0.5-1.4,0.6
			l4,5.6h-3.1l-3.6-5.1h0h-3.2v5.1h-2.6V12.1z M69.5,19.4c0.9,0,1.7-0.2,2.2-0.7c0.5-0.4,0.8-1,0.8-1.8v0c0-0.8-0.3-1.4-0.8-1.8
			c-0.5-0.4-1.3-0.6-2.3-0.6h-3.8v5H69.5z"/>
		<path class="st14" d="M85.3,27.1c-1.1,0-2.2-0.2-3.1-0.6c-0.9-0.4-1.7-0.9-2.4-1.6s-1.2-1.5-1.6-2.4c-0.4-0.9-0.6-1.9-0.6-2.9v0
			c0-1,0.2-2,0.6-2.9c0.4-0.9,0.9-1.7,1.6-2.4c0.7-0.7,1.5-1.2,2.4-1.7c0.9-0.4,2-0.6,3.1-0.6c1.1,0,2.2,0.2,3.1,0.6
			c0.9,0.4,1.7,0.9,2.4,1.6c0.7,0.7,1.2,1.5,1.6,2.4c0.4,0.9,0.6,1.9,0.6,2.9v0c0,1-0.2,2-0.6,2.9c-0.4,0.9-0.9,1.7-1.6,2.4
			c-0.7,0.7-1.5,1.2-2.4,1.7C87.5,26.9,86.5,27.1,85.3,27.1z M85.4,24.7c0.7,0,1.4-0.1,2-0.4c0.6-0.3,1.1-0.6,1.6-1.1
			c0.4-0.5,0.8-1,1-1.7c0.2-0.6,0.4-1.3,0.4-2v0c0-0.7-0.1-1.4-0.4-2c-0.2-0.6-0.6-1.2-1-1.7c-0.4-0.5-1-0.8-1.6-1.1
			c-0.6-0.3-1.3-0.4-2-0.4c-0.7,0-1.4,0.1-2,0.4c-0.6,0.3-1.1,0.6-1.6,1.1s-0.8,1-1,1.7c-0.2,0.6-0.4,1.3-0.4,2v0
			c0,0.7,0.1,1.4,0.4,2c0.2,0.6,0.6,1.2,1,1.7c0.4,0.5,1,0.8,1.6,1.1C84,24.6,84.7,24.7,85.4,24.7z"/>
		<path class="st14" d="M96.2,12.1h5.5c1.1,0,2.2,0.2,3.2,0.6c1,0.4,1.8,0.9,2.5,1.5c0.7,0.7,1.2,1.4,1.6,2.3
			c0.4,0.9,0.6,1.9,0.6,2.9v0c0,1-0.2,2-0.6,2.9c-0.4,0.9-0.9,1.7-1.6,2.3c-0.7,0.7-1.5,1.2-2.5,1.6c-1,0.4-2,0.6-3.2,0.6h-5.5V12.1
			L96.2,12.1z M101.7,24.5c0.8,0,1.5-0.1,2.1-0.4c0.6-0.2,1.2-0.6,1.6-1s0.8-1,1-1.6s0.4-1.3,0.4-2v0c0-0.7-0.1-1.4-0.4-2
			c-0.2-0.6-0.6-1.1-1-1.6c-0.4-0.4-1-0.8-1.6-1c-0.6-0.3-1.3-0.4-2.1-0.4h-2.9v10.1H101.7L101.7,24.5z"/>
	</g>
</g>
</svg>
